<?xml version="1.0" encoding="utf-8"?>
<!-- Generator: Adobe Illustrator 27.4.1, SVG Export Plug-In . SVG Version: 6.00 Build 0)  -->
<svg version="1.1" id="Layer_1" xmlns="http://www.w3.org/2000/svg" xmlns:xlink="http://www.w3.org/1999/xlink" x="0px" y="0px"
	 viewBox="0 0 216.4 252.2" enable-background="new 0 0 216.4 252.2" xml:space="preserve">
<path fill="none" stroke="#000000" stroke-width="20" stroke-miterlimit="10" d="M135,61c40.8,5.9,71.4,41.9,71.4,83.9
	c0,46.5-37.5,84.7-83.1,84.7c-28.1,0-54.4-14.6-69.7-38.6"/>
<rect x="10" y="184.2" fill="#FFFFFF" stroke="#231F20" stroke-width="20" stroke-miterlimit="10" width="104.8" height="3.2"/>
<g>
	
		<rect x="87" y="57.7" transform="matrix(0.5373 -0.8434 0.8434 0.5373 7.9322 138.4206)" fill="#FFFFFF" stroke="#231F20" stroke-width="20" stroke-miterlimit="10" width="86.3" height="8.5"/>
	
		<rect x="157.8" y="8.4" transform="matrix(0.5373 -0.8434 0.8434 0.5373 64.4387 142.1138)" fill="#231F20" stroke="#231F20" stroke-width="10" stroke-miterlimit="10" width="7.8" height="7.8"/>
	
		<rect x="93.3" y="109.7" transform="matrix(0.5373 -0.8434 0.8434 0.5373 -50.8109 134.5597)" fill="#231F20" stroke="#231F20" stroke-width="10" stroke-miterlimit="10" width="7.8" height="7.8"/>
</g>
<rect x="77.6" y="239" fill="#FFFFFF" stroke="#231F20" stroke-width="20" stroke-miterlimit="10" width="104.8" height="3.2"/>
<circle fill="none" stroke="#231F20" stroke-miterlimit="10" cx="145.6" cy="61.9" r="19.5"/>
</svg>
